<?xml version="1.0" encoding="utf-8"?>
<!-- Generator: Adobe Illustrator 19.0.0, SVG Export Plug-In . SVG Version: 6.00 Build 0)  -->
<svg version="1.1" id="Layer_1" xmlns="http://www.w3.org/2000/svg" xmlns:xlink="http://www.w3.org/1999/xlink" x="0px" y="0px"
	 viewBox="0 0 100 100" style="enable-background:new 0 0 100 100;" xml:space="preserve">
<style type="text/css">
	.st0{fill:#FBB040;}
	.st1{fill:#3F403F;}
</style>
<g id="XMLID_1_">
	<path id="XMLID_12_" class="st0" d="M97.5,50c0,0-0.1,1.1-0.2,3.2c0,0.5,0,1.1-0.1,1.8c-0.1,0.6-0.2,1.3-0.3,2.1
		c-0.1,0.8-0.2,1.6-0.4,2.4c-0.2,0.9-0.4,1.8-0.7,2.7c-1.1,3.8-2.7,8.4-5.7,13c-3,4.6-7.2,9.4-12.8,13.3c-5.6,3.9-12.6,6.8-20.5,7.8
		c-1,0.2-2,0.2-3,0.2l-1.5,0.1l-0.8,0c-0.4,0-0.5,0-0.8,0c-2-0.1-4-0.1-6.1-0.5c-4.2-0.5-8.2-1.8-12.2-3.4c-1-0.5-2-0.9-2.9-1.4
		c-1-0.5-1.9-1.1-2.8-1.6L25.3,89c-0.5-0.3-0.9-0.6-1.3-1c-0.9-0.7-1.8-1.3-2.7-2c-3.4-2.8-6.5-6.2-9.1-10c-2.5-3.8-4.5-8-6-12.4
		l-0.9-3.4l-0.2-0.8L5,58.7l-0.3-1.7c-0.2-1.1-0.4-2.3-0.4-3.5l-0.2-3.6l0.1-3.4c0-0.6,0-1.1,0.1-1.7l0.2-1.8l0.2-1.8L5,40.5
		l0.2-0.8L6,36.2c1.4-4.4,3.3-8.7,5.8-12.6c2.6-3.8,5.6-7.3,9-10.3c0.9-0.7,1.8-1.4,2.7-2.1c0.5-0.3,0.9-0.7,1.3-1l1.4-0.9
		c1-0.6,1.9-1.2,2.9-1.7c1-0.5,2-1,3-1.5c4.1-1.7,8.2-3,12.4-3.5c2.1-0.4,4.2-0.4,6.2-0.5l0.4,0l0.2,0l0.1,0c0,0,0.3,0,0.2,0l0.7,0
		l1.5,0.1c1,0.1,1.9,0.1,2.9,0.2c1,0.2,2,0.3,3,0.5c0.5,0.1,1,0.1,1.5,0.3c0.5,0.1,0.9,0.3,1.4,0.4c0.9,0.3,1.9,0.5,2.8,0.8
		c0.9,0.3,1.8,0.7,2.7,1c3.5,1.3,6.6,3.3,9.5,5.2c5.6,4.1,9.8,9,12.7,13.7c2.9,4.7,4.5,9.4,5.5,13.2c0.2,1,0.4,1.9,0.6,2.7
		c0.2,0.9,0.3,1.7,0.4,2.4c0.1,0.8,0.2,1.5,0.3,2.1c0.1,0.6,0.1,1.2,0.1,1.8C97.4,48.9,97.5,50,97.5,50L97.5,50z M97.1,50
		c0,0-0.1-1.1-0.2-3.2c0-0.5,0-1.1-0.1-1.7c-0.1-0.6-0.2-1.3-0.3-2.1c-0.1-0.7-0.2-1.6-0.4-2.4c-0.2-0.8-0.5-1.7-0.7-2.7
		c-0.1-0.5-0.3-0.9-0.4-1.4c-0.2-0.5-0.4-1-0.6-1.5c-0.4-1-0.8-2.1-1.3-3.1c-0.5-1-1.1-2.1-1.7-3.2c-0.7-1.1-1.4-2.2-2.1-3.3
		c-3.1-4.4-7.4-8.8-13-12.3c-0.7-0.4-1.4-0.8-2.2-1.2c-0.7-0.4-1.4-0.8-2.2-1.2c-1.6-0.7-3.1-1.4-4.8-1.9c-0.8-0.3-1.7-0.6-2.5-0.8
		c-0.9-0.2-1.7-0.4-2.6-0.6L60.6,7c-0.4-0.1-0.9-0.1-1.3-0.2c-0.9-0.1-1.8-0.2-2.7-0.4c-0.4-0.1-0.9-0.1-1.4-0.1l-1.5-0.1l-1.5-0.1
		l-0.7,0l-0.6,0c-1.9,0.1-3.8,0.1-5.7,0.5c-3.9,0.5-7.6,1.7-11.3,3.3c-0.9,0.4-1.8,0.9-2.7,1.3c-0.9,0.4-1.8,1-2.6,1.5l-1.3,0.8
		c-0.4,0.3-0.8,0.6-1.2,0.9c-0.8,0.6-1.7,1.2-2.5,1.9c-3.2,2.7-6,5.8-8.5,9.3c-2.4,3.5-4.2,7.4-5.6,11.5l-0.8,3.1l-0.2,0.8l-0.1,0.8
		l-0.3,1.6l-0.3,1.6c-0.1,0.5-0.1,1.1-0.1,1.7l-0.2,3.4l0.1,3.2c0,1.1,0.2,2.2,0.3,3.2L8,58.1l0.1,0.8l0.2,0.8l0.8,3.2
		c1.3,4.1,3.1,8.1,5.4,11.7c2.4,3.6,5.2,6.8,8.4,9.6c0.8,0.7,1.7,1.3,2.5,1.9c0.4,0.3,0.8,0.6,1.3,0.9l1.3,0.8
		c0.9,0.5,1.7,1.1,2.7,1.6c0.9,0.5,1.9,0.9,2.8,1.4c3.7,1.6,7.7,2.9,11.5,3.4c1.9,0.4,3.9,0.4,5.9,0.5c0.2,0,0.5,0,0.7,0l0.7,0
		l1.4-0.1c1-0.1,1.9,0,2.9-0.2c7.5-0.8,14.4-3.4,20-7c5.6-3.6,9.9-8.2,12.9-12.7c0.7-1.2,1.4-2.3,2.1-3.4c0.6-1.1,1.1-2.2,1.6-3.3
		c0.5-1.1,0.8-2.2,1.2-3.2c0.2-0.5,0.4-1,0.6-1.5c0.1-0.5,0.3-1,0.4-1.5c0.2-0.9,0.5-1.8,0.7-2.7c0.2-0.9,0.3-1.7,0.4-2.4
		c0.1-0.8,0.2-1.4,0.3-2.1c0.1-0.6,0.1-1.2,0.1-1.8C97,51.1,97.1,50,97.1,50L97.1,50z"/>
</g>
<g id="XMLID_2_">
	<path id="XMLID_4_" class="st1" d="M46.4,63.8v-4.4h-0.1c-0.8,1.5-1.9,2.7-3.5,3.6s-3.3,1.3-5.2,1.3c-3,0-5.4-1.1-7.2-3.2
		s-2.8-5.1-2.8-8.9c0-3.9,1-7,3.1-9.4s4.7-3.6,7.9-3.6c3.6,0,6.2,1.5,7.7,4.4h0.1V28.3h2.2v35.5H46.4z M46.4,49.2
		c0-2.2-0.7-4.1-2.1-5.7s-3.3-2.3-5.7-2.3c-2.5,0-4.6,1-6.2,2.9s-2.5,4.6-2.5,8c0,3.3,0.7,5.9,2.2,7.7s3.4,2.7,5.7,2.7
		c2.7,0,4.9-0.8,6.4-2.5s2.3-3.8,2.3-6.2V49.2z"/>
	<path id="XMLID_7_" class="st1" d="M72.6,63.8v-14c0-5.8-2.1-8.6-6.2-8.6c-2.3,0-4.2,0.8-5.7,2.5s-2.2,3.8-2.2,6.3v13.8h-2.2v-24
		h2.2v4.4h0.1c1.8-3.3,4.5-4.9,8.2-4.9c2.6,0,4.6,0.9,6,2.6s2.1,4.2,2.1,7.4v14.6H72.6z"/>
</g>
<g id="XMLID_3_">
</g>
<g id="XMLID_9_">
</g>
<g id="XMLID_10_">
</g>
<g id="XMLID_15_">
</g>
<g id="XMLID_16_">
</g>
<g id="XMLID_17_">
</g>
</svg>
